<svg width="20" height="20" viewBox="0 0 20 20" fill="none" xmlns="http://www.w3.org/2000/svg">
<path d="M15 8.125H13.75C13.7495 7.62787 13.5518 7.15125 13.2003 6.79972C12.8488 6.4482 12.3721 6.2505 11.875 6.25V5C12.7035 5.00099 13.4978 5.33055 14.0836 5.91639C14.6694 6.50222 14.999 7.2965 15 8.125Z" fill="#D1F349"/>
<path d="M17.5 8.125H16.25C16.2484 6.96518 15.7869 5.85334 14.9668 5.03323C14.1467 4.21312 13.0348 3.75165 11.875 3.75V2.5C13.3663 2.50165 14.7961 3.09482 15.8507 4.14935C16.9052 5.20388 17.4984 6.63366 17.5 8.125ZM12.7081 13.4262L14.1081 12.0262C14.2957 11.839 14.5339 11.7108 14.7935 11.6575C15.0531 11.6042 15.3226 11.6281 15.5688 11.7262L17.2738 12.4087C17.5249 12.5095 17.7402 12.6831 17.8919 12.9072C18.0436 13.1313 18.1248 13.3956 18.125 13.6662V16.7669C18.1255 16.9512 18.0883 17.1336 18.0158 17.303C17.9432 17.4724 17.8369 17.6253 17.7033 17.7522C17.5697 17.8791 17.4115 17.9774 17.2386 18.0411C17.0656 18.1047 16.8815 18.1324 16.6975 18.1225C4.74626 17.3787 2.33251 7.25625 1.88439 3.38C1.86268 3.19049 1.88134 2.99854 1.93915 2.81677C1.99695 2.635 2.09258 2.46752 2.21974 2.32536C2.34691 2.18319 2.50274 2.06956 2.67697 1.99194C2.8512 1.91432 3.0399 1.87446 3.23064 1.875H6.27626C6.54687 1.87524 6.81122 1.95643 7.03532 2.10813C7.25941 2.25983 7.433 2.4751 7.53376 2.72625L8.21564 4.43125C8.3138 4.6774 8.33769 4.94691 8.28438 5.20649C8.23106 5.46607 8.10287 5.70434 7.91564 5.89187L6.51564 7.29187C6.51564 7.29187 7.29189 12.7494 12.7081 13.4262Z" fill="#D1F349"/>
</svg>
