<svg width="20" height="20" viewBox="0 0 20 20" fill="none" xmlns="http://www.w3.org/2000/svg">
<path d="M9.99967 11.1668L5.91634 15.2502C5.76356 15.4029 5.56912 15.4793 5.33301 15.4793C5.0969 15.4793 4.90245 15.4029 4.74967 15.2502C4.5969 15.0974 4.52051 14.9029 4.52051 14.6668C4.52051 14.4307 4.5969 14.2363 4.74967 14.0835L8.83301 10.0002L4.74967 5.91683C4.5969 5.76405 4.52051 5.56961 4.52051 5.3335C4.52051 5.09738 4.5969 4.90294 4.74967 4.75016C4.90245 4.59738 5.0969 4.521 5.33301 4.521C5.56912 4.521 5.76356 4.59738 5.91634 4.75016L9.99967 8.8335L14.083 4.75016C14.2358 4.59738 14.4302 4.521 14.6663 4.521C14.9025 4.521 15.0969 4.59738 15.2497 4.75016C15.4025 4.90294 15.4788 5.09738 15.4788 5.3335C15.4788 5.56961 15.4025 5.76405 15.2497 5.91683L11.1663 10.0002L15.2497 14.0835C15.4025 14.2363 15.4788 14.4307 15.4788 14.6668C15.4788 14.9029 15.4025 15.0974 15.2497 15.2502C15.0969 15.4029 14.9025 15.4793 14.6663 15.4793C14.4302 15.4793 14.2358 15.4029 14.083 15.2502L9.99967 11.1668Z" fill="currentColor"/>
</svg>
