<svg width="430" height="498" viewBox="0 0 430 498" fill="none" xmlns="http://www.w3.org/2000/svg">
<g opacity="0.7" filter="url(#filter0_df_157_140)">
<path fill-rule="evenodd" clip-rule="evenodd" d="M13.2618 542.014C21.2462 511.979 59.7299 387.639 86.6191 357.682C113.52 327.727 186.364 269.302 208.711 231.843C231.058 194.386 354.451 131.397 356.433 136.344C357.597 139.233 256.185 188.322 228.751 224.272C208.406 250.937 137.847 329.685 101.06 360.904C67.958 388.997 44.3904 516.994 35.3224 539.499C32.1192 547.465 11.0545 550.313 13.2618 542.014Z" fill="#6F8726"/>
<path fill-rule="evenodd" clip-rule="evenodd" d="M350.58 138.899C350.58 138.899 366.341 82.4073 421.503 100.437C421.503 100.437 418.634 146.519 350.58 138.899Z" fill="#679707"/>
<path fill-rule="evenodd" clip-rule="evenodd" d="M333.249 144.331C333.249 144.331 375.842 123.945 363.609 73.3774C363.609 73.3774 320.19 78.9062 333.249 144.331Z" fill="#679707"/>
<path fill-rule="evenodd" clip-rule="evenodd" d="M278.572 179.482C278.572 179.482 320.436 140.615 284.919 102.477C284.919 102.477 247.53 133.309 278.572 179.482Z" fill="#679707"/>
<path fill-rule="evenodd" clip-rule="evenodd" d="M273.367 184.596C273.367 184.596 321.205 171.87 335.312 221.542C335.312 221.542 286.901 235.46 273.367 184.596Z" fill="#679707"/>
<path fill-rule="evenodd" clip-rule="evenodd" d="M312.165 160.359C312.165 160.359 347.966 129.978 317.388 87.6216C317.388 87.6216 281.706 122.261 312.165 160.359Z" fill="#679707"/>
<path fill-rule="evenodd" clip-rule="evenodd" d="M334.649 149.15C334.649 149.15 370.924 126.616 394.789 166.479C394.789 166.479 350.609 192.039 334.649 149.15Z" fill="#679707"/>
<path fill-rule="evenodd" clip-rule="evenodd" d="M300.592 169.377C300.592 169.377 346.911 147.711 362.142 193.694C362.142 193.694 321.292 213.025 300.592 169.377Z" fill="#679707"/>
<path fill-rule="evenodd" clip-rule="evenodd" d="M124.679 337.07C124.679 337.07 162.905 308.986 192.449 304.718C215.309 301.406 244.878 307.469 244.878 307.469L248.919 305.428C248.919 305.428 220.708 294.514 191.282 298.775C170.218 301.81 141.147 314.675 141.147 314.675L124.679 337.07Z" fill="#6F8726"/>
<path fill-rule="evenodd" clip-rule="evenodd" d="M213.158 227.771C232.016 202.812 229.818 181.411 226.366 149.493C226.366 149.493 240.256 192.568 230.665 215.123L213.158 227.771Z" fill="#6F8726"/>
<path fill-rule="evenodd" clip-rule="evenodd" d="M89.4392 356.735C89.4392 356.735 101.909 277.837 115.512 251.518C154.812 175.45 127.263 82.7025 129.361 81.6663C133.355 79.6956 152.811 176.602 127.429 242.774C102.697 307.26 105.486 344.629 105.486 344.629L89.4392 356.735Z" fill="#6F8726"/>
<path fill-rule="evenodd" clip-rule="evenodd" d="M132.113 88.3216C132.113 88.3216 155.898 46.8026 113.274 13.1001C113.274 13.1001 86.9741 65.1372 132.113 88.3216Z" fill="#679707"/>
<path fill-rule="evenodd" clip-rule="evenodd" d="M136.922 115.814C136.922 115.814 124.611 67.6119 169.018 52.7573C169.018 52.7573 180.315 97.3021 136.922 115.814Z" fill="#679707"/>
<path fill-rule="evenodd" clip-rule="evenodd" d="M137.473 202.47C137.473 202.47 153.196 155.273 198.569 166.796C198.569 166.796 183.991 210.374 137.473 202.47Z" fill="#679707"/>
<path fill-rule="evenodd" clip-rule="evenodd" d="M129.215 231.547C129.215 231.547 152.636 187.652 195.437 206.637C195.437 206.637 173.74 247.142 129.215 231.547Z" fill="#679707"/>
<path fill-rule="evenodd" clip-rule="evenodd" d="M136.596 127.799C136.596 127.799 135.799 78.2269 82.2922 83.855C82.2922 83.855 92.782 131.525 136.596 127.799Z" fill="#679707"/>
<path fill-rule="evenodd" clip-rule="evenodd" d="M135.257 202.252C135.257 202.252 134.448 152.689 80.9436 158.318C80.9436 158.318 91.4405 205.987 135.257 202.252Z" fill="#679707"/>
<path fill-rule="evenodd" clip-rule="evenodd" d="M120.876 241.623C120.876 241.623 125.884 192.306 72.0913 191.615C72.0913 191.615 76.9198 240.194 120.876 241.623Z" fill="#679707"/>
<path fill-rule="evenodd" clip-rule="evenodd" d="M108.898 276.329C108.898 276.329 113.807 228.353 63.4065 227.909C63.4065 227.909 67.724 275.127 108.898 276.329Z" fill="#679707"/>
<path fill-rule="evenodd" clip-rule="evenodd" d="M139.17 136.592C139.17 136.592 148.732 95.8422 188.654 94.541C188.654 94.541 181.607 146.607 139.17 136.592Z" fill="#679707"/>
<path fill-rule="evenodd" clip-rule="evenodd" d="M113.825 273.215C113.825 273.215 131.223 232.623 177.01 238.27C177.01 238.27 160.679 291.046 113.825 273.215Z" fill="#679707"/>
<path fill-rule="evenodd" clip-rule="evenodd" d="M138.588 168.117C138.588 168.117 152.695 128.708 192.508 131.93C192.508 131.93 179.615 182.872 138.588 168.117Z" fill="#679707"/>
<path fill-rule="evenodd" clip-rule="evenodd" d="M137.622 155.123C137.622 155.123 126.532 119.36 84.1372 129.237C84.1372 129.237 93.5009 168.726 137.622 155.123Z" fill="#679707"/>
<path fill-rule="evenodd" clip-rule="evenodd" d="M57.0874 445.806C57.0874 445.806 98.7933 419.665 121.781 413.8C145.607 407.727 201.025 403.942 203.686 408.063C206.21 411.976 169.905 404.474 124.306 419.587C78.6962 434.709 52.7415 463.736 49.0249 469.828" fill="#6F8726"/>
<path fill-rule="evenodd" clip-rule="evenodd" d="M204.168 408.338C204.168 408.338 241.853 372.182 287.994 402.305C287.994 402.305 254.223 437.004 204.168 408.338Z" fill="#679707"/>
<path fill-rule="evenodd" clip-rule="evenodd" d="M181.902 408.574C181.902 408.574 184.474 351.992 234.363 356.39C234.363 356.39 235.742 390.762 181.902 408.574Z" fill="#679707"/>
<path fill-rule="evenodd" clip-rule="evenodd" d="M190.683 408.998C190.683 408.998 232.261 408.378 239.122 455.821C239.122 455.821 197.267 460.671 190.683 408.998Z" fill="#679707"/>
<path fill-rule="evenodd" clip-rule="evenodd" d="M165.261 408.191C165.261 408.191 200.944 381.299 175.238 343.123C175.238 343.123 139.848 375.139 165.261 408.191Z" fill="#679707"/>
<path fill-rule="evenodd" clip-rule="evenodd" d="M162.335 410.893C162.335 410.893 206.437 421.567 197.554 464.359C197.554 464.359 157.672 459.41 162.335 410.893Z" fill="#679707"/>
<path fill-rule="evenodd" clip-rule="evenodd" d="M143.979 410.862C143.979 410.862 162.224 388.801 144.48 361.103C144.48 361.103 121.594 387.578 143.979 410.862Z" fill="#679707"/>
<path fill-rule="evenodd" clip-rule="evenodd" d="M117.208 416.018C117.208 416.018 136.163 398.365 124.975 370.567C124.975 370.567 101.377 391.613 117.208 416.018Z" fill="#679707"/>
<path fill-rule="evenodd" clip-rule="evenodd" d="M111.303 422.75C111.303 422.75 112.24 448.636 140.579 458.385C140.579 458.385 140.116 426.762 111.303 422.75Z" fill="#679707"/>
<path fill-rule="evenodd" clip-rule="evenodd" d="M134.93 416.798C134.93 416.798 132.692 445.345 163.132 457.803C163.132 457.803 166.631 422.987 134.93 416.798Z" fill="#679707"/>
<path fill-rule="evenodd" clip-rule="evenodd" d="M249.236 302.727C249.236 302.727 278.089 296.33 292.331 323.073C304.732 346.335 304.761 350.26 309.178 359.969C312.312 366.83 319.705 368.959 318.622 373.355C317.548 377.75 287.649 380.175 271.749 374.273C255.839 368.368 236.963 340.766 235.238 328.564C232.707 310.603 249.236 302.727 249.236 302.727Z" fill="#679707"/>
<path fill-rule="evenodd" clip-rule="evenodd" d="M318.336 370.88C318.709 371.649 318.849 372.458 318.622 373.355C317.548 377.75 287.649 380.175 271.749 374.273C255.839 368.368 236.963 340.766 235.238 328.564C232.705 310.603 249.237 302.727 249.237 302.727C249.237 302.727 265.698 299.079 279.883 308.81C274.323 310.494 265.598 312.732 260.779 311.885C253.327 310.565 255.111 335.947 255.111 335.947L244.11 329.983C244.11 329.983 257.98 360.175 280.069 366.139C298.335 371.058 313.98 374.183 318.336 370.88Z" fill="#4F8219"/>
<path fill-rule="evenodd" clip-rule="evenodd" d="M293.09 335.484C292.213 330.024 286.407 321.408 281.498 318.992C276.234 316.409 270.339 322.304 271.552 327.597C272.991 333.885 279.892 338.392 284.249 342.707C288.498 346.925 291.406 352.17 295.636 356.35C296.267 356.96 296.909 357.561 297.559 358.143C298.023 358.548 298.487 358.943 298.948 359.345C299.52 359.837 304.952 363.573 305.482 361.621C306.092 359.392 303.204 356.13 302.021 354.592C298.808 350.426 294.522 340.589 293.09 335.484Z" fill="#8EAD33"/>
<path fill-rule="evenodd" clip-rule="evenodd" d="M242.012 302.954C242.012 302.954 223.835 309.638 225.274 317.819C226.703 326.009 227.907 331.441 224.623 334.083C224.623 334.083 239.686 324.511 242.326 314.537C242.326 314.537 250.952 333.917 257.408 331.807C257.408 331.807 262.504 314.615 255.979 309.096C249.464 303.586 275.042 311.088 283.59 301.604C283.59 301.604 269.04 303.823 263.036 295.661C254.401 283.91 241.626 300.125 242.012 302.954Z" fill="#3E5528"/>
</g>
<defs>
<filter id="filter0_df_157_140" x="9.72748e-05" y="9.72748e-05" width="434.603" height="591.018" filterUnits="userSpaceOnUse" color-interpolation-filters="sRGB">
<feFlood flood-opacity="0" result="BackgroundImageFix"/>
<feColorMatrix in="SourceAlpha" type="matrix" values="0 0 0 0 0 0 0 0 0 0 0 0 0 0 0 0 0 0 127 0" result="hardAlpha"/>
<feOffset dy="34"/>
<feGaussianBlur stdDeviation="5"/>
<feComposite in2="hardAlpha" operator="out"/>
<feColorMatrix type="matrix" values="0 0 0 0 0.526647 0 0 0 0 0.607681 0 0 0 0 0.280169 0 0 0 0.3 0"/>
<feBlend mode="normal" in2="BackgroundImageFix" result="effect1_dropShadow_157_140"/>
<feBlend mode="normal" in="SourceGraphic" in2="effect1_dropShadow_157_140" result="shape"/>
<feGaussianBlur stdDeviation="6.55" result="effect2_foregroundBlur_157_140"/>
</filter>
</defs>
</svg>
